HIERARCHY
ROOT Hips
{
	OFFSET 0.000000 0.000000 0.000000
	CHANNELS 6 Xposition Yposition Zposition Zrotation Yrotation Xrotation 
	JOINT LowerBack
	{
		OFFSET 0.000000 0.000000 0.000000
		CHANNELS 3 Zrotation Yrotation Xrotation
		JOINT Spine
		{
			OFFSET 0.028270 2.035590 -0.193380
			CHANNELS 3 Zrotation Yrotation Xrotation
			JOINT Spine1
			{
				OFFSET 0.056720 2.048850 -0.042750
				CHANNELS 3 Zrotation Yrotation Xrotation
				JOINT Neck
				{
					OFFSET 0.000000 0.000000 0.000000
					CHANNELS 3 Zrotation Yrotation Xrotation
					JOINT Neck1
					{
						OFFSET -0.054170 1.746240 0.172020
						CHANNELS 3 Zrotation Yrotation Xrotation
						JOINT Head
						{
							OFFSET 0.104070 1.761360 -0.123970
							CHANNELS 3 Zrotation Yrotation Xrotation
							End Site
							{
								OFFSET 0.000000 0.000000 0.000000
							}
						}
					}
				}
				JOINT LeftShoulder
				{
					OFFSET 0.000000 0.000000 0.000000
					CHANNELS 3 Zrotation Yrotation Xrotation
					JOINT LeftArm
					{
						OFFSET 3.362410 1.200890 -0.311210
						CHANNELS 3 Zrotation Yrotation Xrotation
						JOINT LeftForeArm
						{
							OFFSET 4.983000 -0.000000 -0.000000
							CHANNELS 3 Zrotation Yrotation Xrotation
							JOINT LeftHand
							{
								OFFSET 3.483560 -0.000000 -0.000000
								CHANNELS 3 Zrotation Yrotation Xrotation
								JOINT LeftFingerBase
								{
									OFFSET 0.000000 0.000000 0.000000
									CHANNELS 3 Zrotation Yrotation Xrotation
									JOINT LeftHandIndex1
									{
										OFFSET 0.715260 -0.000000 -0.000000
										CHANNELS 3 Zrotation Yrotation Xrotation
										End Site
										{
											OFFSET 0.000000 0.000000 0.000000
										}
									}
								}
								JOINT LThumb
								{
									OFFSET 0.000000 0.000000 0.000000
									CHANNELS 3 Zrotation Yrotation Xrotation
									End Site
									{
										OFFSET 0.000000 0.000000 0.000000
									}
								}
							}
						}
					}
				}
				JOINT RightShoulder
				{
					OFFSET 0.000000 0.000000 0.000000
					CHANNELS 3 Zrotation Yrotation Xrotation
					JOINT RightArm
					{
						OFFSET -3.136600 1.374050 -0.404650
						CHANNELS 3 Zrotation Yrotation Xrotation
						JOINT RightForeArm
						{
							OFFSET -5.241900 -0.000000 -0.000000
							CHANNELS 3 Zrotation Yrotation Xrotation
							JOINT RightHand
							{
								OFFSET -3.444170 -0.000000 -0.000000
								CHANNELS 3 Zrotation Yrotation Xrotation
								JOINT RightFingerBase
								{
									OFFSET 0.000000 0.000000 0.000000
									CHANNELS 3 Zrotation Yrotation Xrotation
									JOINT RightHandIndex1
									{
										OFFSET -0.622530 -0.000000 -0.000000
										CHANNELS 3 Zrotation Yrotation Xrotation
										End Site
										{
											OFFSET 0.000000 0.000000 0.000000
										}
									}
								}
								JOINT RThumb
								{
									OFFSET 0.000000 0.000000 0.000000
									CHANNELS 3 Zrotation Yrotation Xrotation
									End Site
									{
										OFFSET 0.000000 0.000000 0.000000
									}
								}
							}
						}
					}
				}
			}
		}
	}
}
}
MOTION
Frames: 14
Frame Time: 0.008333
25.275320 16.222484 2.344775 -178.589836 -80.540425 -168.554946 -8.683005 3.505697 -4.496099 -2.700841 3.988315 -4.294556 -5.603428 3.846733 -0.750883 7.200003 -1.832356 -9.302427 -2.623387 -0.182015 -0.543363 0.000000 0.000000 0.000000 -5.807352 18.362375 2.816417 -44.961481 16.054097 8.304891 -5.374950 -1.687329 -0.019824 3.158991 7.764021 0.224455 -0.147774 -0.015060 -0.000000 0.000000 0.000000 0.000000 0.000000 0.000000 0.000000 7.755332 7.262856 1.115125 50.004439 37.820438 23.754853 0.824552 69.984586 -0.022260 -4.033689 8.882033 -0.334905 0.061884 -0.500541 -0.000000 0.000000 0.000000 0.000000 0.000000 0.000000 0.000000 
25.107864 16.208089 2.362841 178.756596 -80.684597 -166.431496 -9.005118 3.324166 -4.033706 -2.781398 3.832819 -4.250854 -5.787709 3.692845 -0.933115 7.512657 -1.542156 -9.164491 -2.816938 -0.198189 -0.522558 0.000000 0.000000 0.000000 -6.071345 17.631773 2.913885 -45.887076 14.434286 8.314838 -5.306665 -1.070178 -0.017975 3.942255 7.489590 0.266795 -0.135440 -0.004141 -0.000000 0.000000 0.000000 0.000000 0.000000 0.000000 0.000000 8.763751 7.595804 1.145439 51.881865 35.934467 24.066779 0.886228 68.552807 -0.024748 -4.711288 9.229781 -0.406125 0.076310 -0.494877 -0.000000 0.000000 0.000000 0.000000 0.000000 0.000000 0.000000 
24.943784 16.193410 2.380257 175.740895 -80.872828 -163.932926 -9.337048 3.110397 -3.565333 -2.860479 3.645265 -4.203374 -5.965965 3.505707 -1.115338 7.808099 -1.264852 -9.002255 -3.008877 -0.214325 -0.495501 0.000000 0.000000 0.000000 -6.292140 16.840718 3.014247 -46.884694 12.757972 8.401217 -5.233290 -0.595858 -0.016221 4.677232 7.128160 0.298538 -0.122893 0.005619 -0.000000 0.000000 0.000000 0.000000 0.000000 0.000000 0.000000 9.769814 7.862773 1.159734 53.772567 34.019248 24.233523 0.946928 66.861192 -0.027264 -5.410619 9.639260 -0.486171 0.088771 -0.488016 -0.000000 0.000000 0.000000 0.000000 0.000000 0.000000 0.000000 
24.782413 16.178968 2.397514 172.553917 -81.086212 -161.243130 -9.639379 2.875906 -3.100629 -2.930455 3.433987 -4.154879 -6.137470 3.293120 -1.302306 8.074780 -0.988441 -8.807847 -3.194358 -0.230147 -0.459155 0.000000 0.000000 0.000000 -6.485382 15.969390 3.112842 -47.934951 11.071466 8.554169 -5.155851 -0.303097 -0.014527 5.353633 6.662836 0.317383 -0.110625 0.013623 -0.000000 0.000000 0.000000 0.000000 0.000000 0.000000 0.000000 10.733980 8.074104 1.158066 55.701446 32.048303 24.197383 1.005562 64.896212 -0.029501 -6.083164 10.098348 -0.571348 0.098313 -0.479462 -0.000000 0.000000 0.000000 0.000000 0.000000 0.000000 0.000000 
24.623113 16.165482 2.414770 169.271682 -81.313015 -158.432270 -9.900029 2.625695 -2.648776 -2.989836 3.203187 -4.103131 -6.303576 3.059474 -1.477567 8.323086 -0.750255 -8.598606 -3.370427 -0.245204 -0.417873 0.000000 0.000000 0.000000 -6.660359 15.048706 3.201774 -49.009969 9.380556 8.793231 -5.072862 -0.293757 -0.012912 5.972785 6.125095 0.323929 -0.098913 0.019536 -0.000000 0.000000 0.000000 0.000000 0.000000 0.000000 0.000000 11.666319 8.190127 1.147748 57.645525 30.087016 23.955033 1.062721 62.635707 -0.031354 -6.725002 10.589383 -0.660556 0.105173 -0.468666 -0.000000 0.000000 0.000000 0.000000 0.000000 0.000000 0.000000 
24.465605 16.153798 2.432286 165.991928 -81.541822 -155.595205 -10.104570 2.370007 -2.218878 -3.036332 2.962455 -4.047786 -6.463649 2.814507 -1.631598 8.552168 -0.559867 -8.380027 -3.535003 -0.259263 -0.372792 0.000000 0.000000 0.000000 -6.825145 14.094989 3.271296 -50.107460 7.548153 9.094181 -4.983782 -0.284293 -0.011171 6.544891 5.390613 0.311074 -0.087941 0.023435 -0.000000 0.000000 0.000000 0.000000 0.000000 0.000000 0.000000 12.554654 8.195131 1.131229 59.597506 28.151353 23.469222 1.117089 60.077726 -0.032745 -7.323864 11.091757 -0.751195 0.109238 -0.455220 -0.000000 0.000000 0.000000 0.000000 0.000000 0.000000 0.000000 
24.309265 16.144626 2.450412 162.802252 -81.761526 -152.818860 -10.241830 2.113171 -1.815901 -3.068104 2.715528 -3.992129 -6.618195 2.561608 -1.771114 8.759515 -0.404430 -8.151050 -3.684692 -0.272105 -0.322944 0.000000 0.000000 0.000000 -6.995656 13.092450 3.324021 -51.185911 5.737228 9.452809 -4.888147 -0.583272 -0.009502 7.094883 4.587875 0.286016 -0.077800 0.025287 -0.000000 0.000000 0.000000 0.000000 0.000000 0.000000 0.000000 13.376445 8.110883 1.114109 61.563496 26.225702 22.676676 1.168376 57.236152 -0.033594 -7.865985 11.586147 -0.840159 0.110590 -0.439027 -0.000000 0.000000 0.000000 0.000000 0.000000 0.000000 0.000000 
24.153674 16.138751 2.469320 159.743979 -81.966608 -150.138535 -10.313065 1.859093 -1.446933 -3.085812 2.466803 -3.934905 -6.767042 2.305654 -1.883185 8.951216 -0.300892 -7.925760 -3.818417 -0.283491 -0.272121 0.000000 0.000000 0.000000 -7.178752 12.076507 3.354817 -52.230371 3.868303 9.871354 -4.784684 -1.084307 -0.007900 7.643969 3.695795 0.247456 -0.068487 0.025599 -0.000000 0.000000 0.000000 0.000000 0.000000 0.000000 0.000000 14.134874 7.920383 1.101089 63.517497 24.349144 21.557454 1.216153 54.125315 -0.033986 -8.373492 12.049096 -0.927246 0.109909 -0.419942 -0.000000 0.000000 0.000000 0.000000 0.000000 0.000000 0.000000 
23.998507 16.136678 2.489130 156.848206 -82.152839 -147.584979 -10.320163 1.610452 -1.116270 -3.089764 2.219328 -3.877720 -6.909013 2.049838 -1.968540 9.126650 -0.236729 -7.705123 -3.934435 -0.293303 -0.220431 0.000000 0.000000 0.000000 -7.377358 11.051720 3.365490 -53.227144 1.945932 10.314959 -4.673540 -1.777494 -0.006443 8.217305 2.732871 0.195992 -0.060048 0.024965 -0.000000 0.000000 0.000000 0.000000 0.000000 0.000000 0.000000 14.815225 7.641215 1.095972 65.447332 22.517215 20.058524 1.259145 50.774757 -0.034013 -8.863374 12.463026 -1.012053 0.107605 -0.398140 -0.000000 0.000000 0.000000 0.000000 0.000000 0.000000 0.000000 
23.843584 16.138894 2.509890 154.129380 -82.316273 -145.170914 -10.270081 1.367340 -0.827164 -3.081294 1.973803 -3.820412 -7.044458 1.795318 -2.021736 9.292894 -0.215376 -7.497817 -4.032876 -0.301495 -0.170381 0.000000 0.000000 0.000000 -7.595630 10.041703 3.357172 -54.158691 -0.043991 10.784803 -4.555317 -2.658835 -0.005240 8.829192 1.735219 0.132925 -0.052586 0.024097 -0.000000 0.000000 0.000000 0.000000 0.000000 0.000000 0.000000 15.424429 7.276458 1.103728 67.318148 20.753037 18.161814 1.297179 47.221171 -0.033786 -9.369800 12.804519 -1.095873 0.104407 -0.373850 -0.000000 0.000000 0.000000 0.000000 0.000000 0.000000 0.000000 
23.688569 16.145605 2.531704 151.617436 -82.454904 -142.927376 -10.166732 1.130053 -0.579836 -3.060650 1.730795 -3.763938 -7.171947 1.542955 -2.044708 9.450440 -0.221297 -7.303568 -4.112712 -0.308033 -0.121964 0.000000 0.000000 0.000000 -7.831705 9.054496 3.334898 -55.018997 -2.098675 11.243599 -4.431892 -3.710083 -0.004395 9.486663 0.729695 0.058955 -0.046364 0.023747 -0.000000 0.000000 0.000000 0.000000 0.000000 0.000000 0.000000 15.952477 6.850020 1.127731 69.105054 19.055127 15.834214 1.329701 43.503352 -0.033403 -9.921843 13.062480 -1.180403 0.100735 -0.347573 0.000000 0.000000 0.000000 0.000000 0.000000 0.000000 0.000000 
23.533226 16.156935 2.554544 149.331372 -82.567541 -140.875941 -10.016139 0.897558 -0.373149 -3.028537 1.489590 -3.709756 -7.291004 1.292266 -2.042838 9.602937 -0.234841 -7.118167 -4.174415 -0.313059 -0.074197 0.000000 0.000000 0.000000 -8.080702 8.087135 3.305455 -55.802916 -4.197125 11.654022 -4.305994 -4.924153 -0.004007 10.182473 -0.252086 -0.024717 -0.041717 0.024633 -0.000000 0.000000 0.000000 0.000000 0.000000 0.000000 0.000000 16.399184 6.391951 1.172710 70.773206 17.415514 13.049436 1.356611 39.669811 -0.032929 -10.540657 13.225641 -1.266239 0.096831 -0.319979 0.000000 0.000000 0.000000 0.000000 0.000000 0.000000 0.000000 
23.377715 16.172687 2.578422 147.300429 -82.655459 -139.051893 -9.823068 0.668150 -0.201954 -2.985208 1.248747 -3.656183 -7.399578 1.042540 -2.013012 9.753312 -0.258160 -6.947499 -4.216320 -0.316436 -0.028851 0.000000 0.000000 0.000000 -8.332374 7.165702 3.272552 -56.517737 -6.367622 11.990916 -4.180754 -6.255938 -0.004161 10.893971 -1.191682 -0.116588 -0.039186 0.027498 -0.000000 0.000000 0.000000 0.000000 0.000000 0.000000 0.000000 16.759513 5.909858 1.239960 72.289724 15.861397 9.837888 1.379889 35.736914 -0.032396 -11.260387 13.301775 -1.356975 0.093143 -0.291813 0.000000 0.000000 0.000000 0.000000 0.000000 0.000000 0.000000 
23.221578 16.192737 2.603246 145.540194 -82.721622 -137.475625 -9.594031 0.439427 -0.061262 -2.931674 1.006176 -3.604109 -7.497528 0.792013 -1.962457 9.907422 -0.276146 -6.786181 -4.239789 -0.318401 0.015365 0.000000 0.000000 0.000000 -8.572487 6.283494 3.242202 -57.167542 -8.584134 12.225990 -4.059303 -7.694056 -0.004918 11.588846 -2.063931 -0.213358 -0.039166 0.032916 -0.000000 0.000000 0.000000 0.000000 0.000000 0.000000 0.000000 17.041230 5.430922 1.333201 73.611491 14.383454 6.220481 1.401065 31.744102 -0.031802 -12.081947 13.290177 -1.451310 0.089655 -0.263980 0.000000 0.000000 0.000000 0.000000 0.000000 0.000000 0.000000 
